<svg width="512" height="512" version="1.1" viewBox="0 0 512 512" xmlns="http://www.w3.org/2000/svg">
 <path d="m270 485h-115l20-55c3.2134-47.486-20-18-20-18s-32.145 1.579-40 28c-8.4576 11.992-10 0-10 0s0.80478-19.198 5-25c6.4267-6.0697 40-6 40-6v-64c-12.139-2.1422-25-25-25-25-0.71408-13.925-15-20-15-20l-10 5-5-15s21.872-23.282 35-20v-70s-5-30-10-40l-5-50c34.588-37.87 57.536-85 57.536-85s53.174 96.091 37.464 165c-8.8363 4.5444-20 5-20 5s-4.7968 25.708 0 30c0 0 8.639 5.2525 20 5 7.069-5.5542 10-50 10-50s30.36-60.869 40-64.797c59.269-20.351 150-85.203 150-85.203 13.568 14.996-44.302 179.28-100 160 0 0-23.216 13.758-30 40-5 30-70 70-70 70 10.354 45.344 60 185 60 185z" fill="#c0169f"/>
</svg>
