<svg width="512" height="512" version="1.1" viewBox="0 0 512 512" xmlns="http://www.w3.org/2000/svg">
 <path d="m256 64a192 192 0 0 0-192 192 192 192 0 0 0 192 192 192 192 0 0 0 192-192 192 192 0 0 0-192-192zm-0.24414 32a48 48 0 0 1 0.24414 0 48 48 0 0 1 48 48 48 48 0 0 1-48 48 48 48 0 0 1-48-48 48 48 0 0 1 47.756-48zm-96 56a48 48 0 0 1 0.24414 0 48 48 0 0 1 48 48 48 48 0 0 1-48 48 48 48 0 0 1-48-48 48 48 0 0 1 47.756-48zm192 0a48 48 0 0 1 0.24414 0 48 48 0 0 1 48 48 48 48 0 0 1-48 48 48 48 0 0 1-48-48 48 48 0 0 1 47.756-48zm-95.756 72a32 32 0 0 1 32 32 32 32 0 0 1-32 32 32 32 0 0 1-32-32 32 32 0 0 1 32-32zm-96.244 40a48 48 0 0 1 0.24414 0 48 48 0 0 1 48 48 48 48 0 0 1-48 48 48 48 0 0 1-48-48 48 48 0 0 1 47.756-48zm192 0a48 48 0 0 1 0.24414 0 48 48 0 0 1 48 48 48 48 0 0 1-48 48 48 48 0 0 1-48-48 48 48 0 0 1 47.756-48zm-96 56a48 48 0 0 1 0.24414 0 48 48 0 0 1 48 48 48 48 0 0 1-48 48 48 48 0 0 1-48-48 48 48 0 0 1 47.756-48z" style="fill:#b8b8b8;opacity:.987;stroke-width:8.3888"/>
</svg>
