<svg width="512" height="512" version="1.1" viewBox="0 0 135.47 135.47" xmlns="http://www.w3.org/2000/svg">
 <g stroke="#cca300" stroke-width="2.1167">
  <path transform="scale(.26458)" d="m109.81 89.932c-8.7439 0.079282-17.387 0.75741-25.814 2.0684-43.84 14.531-64 108-64 108 24 12 78.619-5.3018 92 0 2.967 42.752 2.2601 118.91 48 120l20 92c36.159 6.0265 55.911 9.0266 76 9 20.089 0.02665 39.841-2.9735 76-9l20-92c45.74-1.0881 45.033-77.248 48-120 13.381-5.3018 68 12 92 0 0 0-20.16-93.469-64-108-44.949-6.9917-96 4-136 28 0 0-16.312 1.875-36 2-19.688-0.12499-36-2-36-2-32.5-19.5-72.295-30.412-110.19-30.068z" fill="#ffff01" stroke="#cca300" stroke-width="8.0003"/>
 </g>
</svg>
