<svg width="512" height="512" version="1.1" viewBox="0 0 135.47 135.47" xmlns="http://www.w3.org/2000/svg">
 <path transform="scale(.26459)" d="m255.49 16a240 240 0 0 0-239.49 240 240 240 0 0 0 240 240 240 240 0 0 0 240-240 240 240 0 0 0-240-240 240 240 0 0 0-0.50781 0zm0.01367 32a208 208 0 0 1 0.49414 0 208 208 0 0 1 208 208 208 208 0 0 1-208 208 208 208 0 0 1-208-208 208 208 0 0 1 207.51-208zm-50.605 84.625-90.301 1.75v29.051l26.25 10.5v166.25l-26.25 8.75v30.449h99.75v-30.449l-26.949-8.75v-126.7l5.9492 18.201 40.25 82.949 37.801-1.75c3.7333-7.9333 8.9833-18.784 15.75-32.551 7-14 13.182-26.833 18.549-38.5 5.6-11.9 10.501-23.332 14.701-34.299v132.65l-27.301 8.75v30.449h104.3v-30.449l-26.25-8.75v-166.25l25.199-10.5v-30.801l-84 1.75-54.949 114.8-52.5-116.55z" fill="#003ff9" stroke-linejoin="round" stroke-width="1.092"/>
</svg>
