<svg width="512" height="512" version="1.1" viewBox="0 0 135.47 135.47" xmlns="http://www.w3.org/2000/svg">
 <g fill="#ff007c" stroke-linecap="square" stroke-linejoin="round" stroke-opacity=".50196">
  <path transform="scale(.26458)" d="m255.46 80a176 176 0 0 0-118.74 46.586 176 176 0 0 0-19.518 237.63 6.25 6.2 0 0 0 5.084 2.5957 6.25 6.2 0 0 0 6.25-6.2012 6.25 6.2 0 0 0-1.4629-3.9844 160 160 0 0 1 20.49-212.4 160 160 0 0 1 216.88 0 160 160 0 0 1 20.441 212.46l0.00976 0.00781a6.25 6.2 0 0 0-1.4023 3.9102 6.25 6.2 0 0 0 6.25 6.2012 6.25 6.2 0 0 0 5.252-2.8398 6.25 6.2 0 0 0 0-0.00195 176 176 0 0 0-19.707-237.38 176 176 0 0 0-119.82-46.586z" stroke-width="16"/>
  <path transform="scale(.26458)" d="m255.82 128a128 128 0 0 0-86.568 33.881 128 128 0 0 0-14.338 172.64 2.775 2.775 0 0 0 2.3262 1.2637 2.775 2.775 0 0 0 2.7754-2.7734 2.775 2.775 0 0 0-0.51562-1.6113l0.01172-0.00976a112 120.39 0 0 1 20.584-149.64 112 120.39 0 0 1 151.81 0 112 120.39 0 0 1 20.584 149.64l0.00391 0.00195a2.775 2.775 0 0 0-0.47266 1.5469 2.775 2.775 0 0 0 2.7754 2.7754 2.775 2.775 0 0 0 2.0566-0.91406l0.01171 0.00781a128 128 0 0 0-14.115-172.92 128 128 0 0 0-86.932-33.881z" stroke-width="22.418"/>
  <path transform="scale(.26458)" d="m231.9 200-47.562 84.004h-0.01758a72 72 0 0 0-0.31836 6.7539 72 72 0 0 0 48.059 67.902l7.9414 89.344h32l7.9414-89.344a72 72 0 0 0 48.059-67.902 72 72 0 0 0-0.31641-6.7539h-0.02148l-47.764-84.004h-48zm24.102 84.004a12 12 0 0 1 12 12 12 12 0 0 1-12 12 12 12 0 0 1-12-12 12 12 0 0 1 12-12z" stroke-width="27.704"/>
 </g>
</svg>
