<svg width="512" height="512" version="1.1" viewBox="0 0 135.47 135.47" xmlns="http://www.w3.org/2000/svg" xmlns:xlink="http://www.w3.org/1999/xlink">
 <path d="m74.614 26.459c-0.4676 0.167 4.7626-21.167-7.1439-21.167s-6.766 21.309-7.1439 21.167c0 0-8.7315-1.3229-11.377 1.3229-2.4475 3.7531-11.387 31.089-11.387 31.089s-2.6267 7.6735 2.9201 9.3931c6.0952 1.3965 8.4669-6.0856 8.4669-6.0856l7.1816-21.167-0.56682 41.011-5.2918 41.011s-0.94094 5.2918 3.9688 6.6148c5.2918 0.59547 6.6147-5.2918 6.6147-5.2918l6.6147-48.949 7.9377 48.949s0.8506 5.2918 5.2918 5.2918c6.3502 0 5.2918-6.6147 5.2918-6.6147-0.09447-1.606-5.2918-42.334-5.2918-42.334l-1.3229-39.688 9.2606 23.813s1.323 5.2918 6.6147 3.9688c5.988-2.2169 2.6459-9.2606 2.6459-9.2606l-11.907-31.751c-2.6459-2.6459-11.377-1.3229-11.377-1.3229z" fill="none" stroke="#0000ff" stroke-width="2.1167"/>
 <circle cx="70.91" cy="13.759" r="1.0584" fill="#0000ff"/>
 <circle cx="64.56" cy="13.759" r="1.0584" fill="#0000ff"/>
</svg>
