<svg width="512" height="512" version="1.1" viewBox="20 20 460 460" xmlns="http://www.w3.org/2000/svg">
 <g>
  <path d="m120 180 220-80s-56.548-45.313-140-20c-65.13 27.464-80 100-80 100z" fill="#fac900"/>
  <path d="m380 140-260 80s6.9971 14.181 1.8457 23.521c-11.846 21.478-4.594 47.448-1.8457 51.479-10.989 19.474-16.936 22.553-15 45 13.671 20.586 55.288 18.976 80 45-5 35-5 40 30 35 0 29.649 16.451 21.82 25 10 10 15 20 15 30 0 5 10 20 20 30-10 27.401 0 25-5 20-35 0-20 75-25 80-50 1.3932-10.888-10.567-22.706-8.8828-35.566 3.4999-26.73-6.368-57.323-11.117-59.434-5-10 20-60 0-100zm-184.95 103.36a30 34.258 45 0 1 20.195 7.9746 30 34.258 45 0 1-3.0098 45.438 30 34.258 45 0 1-45.438 3.0098 30 34.258 45 0 1 3.0098-45.438 30 34.258 45 0 1 25.242-10.984zm123.89 0a34.258 30 45 0 1 25.715 10.984 34.258 30 45 0 1 3.0098 45.438 34.258 30 45 0 1-45.438-3.0098 34.258 30 45 0 1-3.0098-45.438 34.258 30 45 0 1 19.723-7.9746zm-63.941 71.637c38.427 17.319 15 50 15 50s-12.294-11.353-15-10c-5.6829-1.8943-20 10-20 10-15.966-2.1649-11.932-29.433 20-50zm68.357 23.377a10 10 0 0 1 0.01953 0 10 10 0 0 1 10 10 10 10 0 0 1-10 10 10 10 0 0 1-10-10 10 10 0 0 1 9.9805-10zm-143.38 1.623a10 10 0 0 1 0.01953 0 10 10 0 0 1 10 10 10 10 0 0 1-10 10 10 10 0 0 1-10-10 10 10 0 0 1 9.9805-10z" fill="#fac900"/>
 </g>
</svg>
