<svg width="512" height="512" version="1.1" viewBox="0 0 135.47 135.47" xmlns="http://www.w3.org/2000/svg" xmlns:xlink="http://www.w3.org/1999/xlink">
 <circle transform="rotate(-30)" cx="21.283" cy="37.355" r="12.7" fill="none" stroke="#ff0000" stroke-linejoin="round" stroke-width="4.2334"/>
 <path transform="scale(.26459)" d="m282.65 92.021c-1.6684 0.021647-3.3401 0.13276-5.0078 0.33789-5.9298 0.72934-11.81 2.6282-17.295 5.7949l0.00196 0.001953-166.24 95.977-0.001953-0.00195c-21.94 12.667-29.505 40.902-16.838 62.842l0.00586-0.00391c18.464 11.096 31.828 20.92 53.168 20.1 1.2645-0.83939 2.8282-5.0979 1.8281-6.8301-15.008-1.212-32.132-11.274-44.611-19.273-9.4195-16.323-3.8723-37.016 12.449-46.439l5.8848-3.3965c14.32-8.2156 32.347-5.0335 42.93 7.5664l9.1894-7.7207c-6.7218-8.0033-15.717-13.193-25.367-15.293l101.03-58.33c-3.0102 9.4302-3.0064 19.847 0.58008 29.701l11.279-4.1035c-5.6387-15.493 0.58652-32.697 14.814-40.998l5.8926-3.4023c0.00253-0.00147 0.00527-0.00244 0.00781-0.00391l0.0332-0.01953c16.315-9.3902 36.982-3.8423 46.4 12.463 0.6876 14.806 0.84109 34.667-5.6133 48.27 1 1.732 5.4709 2.5055 6.8301 1.8301 11.38-18.071 9.5527-34.556 9.1758-56.094l0.00391-0.00195c-0.00118-0.00204-0.00273-0.00382-0.00391-0.00586-2.8e-4 -4.9e-4 2.8e-4 -0.00147 0-0.00195-8.6106-14.907-24.409-23.172-40.533-22.963z" color="#000000" color-rendering="auto" dominant-baseline="auto" fill="#ff0000" image-rendering="auto" shape-rendering="auto" solid-color="#000000" stop-color="#000000" style="font-feature-settings:normal;font-variant-alternates:normal;font-variant-caps:normal;font-variant-east-asian:normal;font-variant-ligatures:normal;font-variant-numeric:normal;font-variant-position:normal;font-variation-settings:normal;inline-size:0;isolation:auto;mix-blend-mode:normal;shape-margin:0;shape-padding:0;text-decoration-color:#000000;text-decoration-line:none;text-decoration-style:solid;text-indent:0;text-orientation:mixed;text-transform:none;white-space:normal"/>
 <rect transform="rotate(-30)" x="9.6409" y="63.549" width="23.284" height="70.116" fill="#ff0000"/>
 <rect transform="rotate(-30)" x="19.166" y="136.31" width="4.2334" height="27.782" fill="#ff0000"/>
 <rect transform="rotate(-30)" x="15.33" y="86.039" width="11.907" height="39.688" fill="#c80000" opacity=".69281"/>
</svg>
