<svg width="512" height="512" version="1.1" viewBox="0 0 135.47 135.47" xmlns="http://www.w3.org/2000/svg" xmlns:xlink="http://www.w3.org/1999/xlink">
 <text font-family="sans-serif" font-size="10.584px" word-spacing="0px" style="line-height:1.25;shape-inside:url(#rect38);white-space:pre" xml:space="preserve"/>
 <path transform="scale(.26459)" d="m256 16-16 240 16 240 16-240-16-240zm-214.79 9.7871-21.213 21.213 98.994 98.994 21.215-21.213-98.996-98.994zm427.57 0-98.996 98.994 21.215 21.213 98.994-98.994-21.213-21.213zm-334.28 154.34c-0.17449-0.0089-0.37024-0.00852-0.58594 0.00196-1.5687 0.07619-4.224 0.67166-7.9199 1.8711 0 0-84.99 27.396-86 38-3.5345 2.5246 9.3964 35.961 20 40 12.623 4.0394 120 0 120 0l40 160v-212c-12.118-3.4083-138.36 6.9034-140 4-1.8935-3.787 48-25.768 48-25.768 7.0898-3.6837 9.1232-5.9719 6.5059-6.1055zm240.99 0c-2.6173 0.13355-0.58398 2.4218 6.5059 6.1055 0 0 49.894 21.981 48 25.768-1.641 2.9034-127.88-7.4083-140-4v212l40-160s107.38 4.0394 120 0c10.604-4.0394 23.534-37.475 20-40-1.0099-10.604-86-38-86-38-3.6959-1.1994-6.3512-1.7949-7.9199-1.8711-0.2157-0.01048-0.41145-0.01086-0.58594-0.00196zm-256.5 185.88-98.994 98.994 21.213 21.213 98.996-98.994-21.215-21.213zm272.01 0-21.215 21.213 98.996 98.994 21.213-21.213-98.994-98.994z" fill="#00e3f1" stroke-linejoin="round" stroke-width="1.0328"/>
</svg>
