<svg width="512" height="512" version="1.1" viewBox="0 0 135.47 135.47" xmlns="http://www.w3.org/2000/svg" xmlns:xlink="http://www.w3.org/1999/xlink">
 <text font-family="sans-serif" font-size="10.584px" word-spacing="0px" style="line-height:1.25;shape-inside:url(#rect38);white-space:pre" xml:space="preserve"/>
 <ellipse cx="67.735" cy="14.817" rx="10.584" ry="10.584" fill="#d00a00" stroke-linejoin="round" stroke-width="3.1751"/>
 <path transform="scale(.26459)" d="m244 90v45s-13 3-15 0c-4-2 5.3125-29.375 0-30h-88s0-10-10-10-10 10-10 10h-97s119 129.51 125 130h50s39.911 55.001 40 60c-0.08228 4.4426-28.077 32.908-29.021 33.996-0.45668 0.52572-0.42518 1.5157 0.02148 2.0039 0.99731 0.99612 28.995 27.998 29 29 0.00339 0.90121-21.088 24.917-22.01 26-0.39224 0.46113-0.34096 1.5854 0.02149 1.9883 0.98895 1.0112 26.988 31.012 26.988 32.012 0 0.88526-13.15 20.866-14.023 21.994-0.42225 0.54515-0.42714 1.5058 0.02344 2.0059 1 1 18.99 19.986 19 21v30h7 7v-30c0.01049-1.0138 18-20 19-21 0.45058-0.50002 0.44569-1.4607 0.02344-2.0059-0.87346-1.1277-14.023-21.109-14.023-21.994 0-1 25.999-31.001 26.988-32.012 0.36245-0.40292 0.41373-1.5272 0.02149-1.9883-0.92146-1.0833-22.013-25.099-22.01-26 0.00513-1.0023 28.003-28.004 29-29 0.44666-0.4882 0.47816-1.4782 0.02148-2.0039-0.94492-1.0878-28.939-29.553-29.021-33.996 0.08926-4.9986 40-60 40-60h50c6-0.48809 125-130 125-130h-97s1e-5 -10-10-10c-10 0-10 10-10 10h-88c-5.3125 0.625 4 28 0 30-2 3-15 0-15 0v-45h-24z" fill="#d00a00" stroke-linejoin="round" stroke-width="11.758"/>
 <circle cx="7.9377" cy="27.782" r="3.1751" fill="#d00a00"/>
 <circle cx="127.53" cy="27.782" r="3.1751" fill="#d00a00"/>
</svg>
