<svg xmlns="http://www.w3.org/2000/svg" xmlns:xlink="http://www.w3.org/1999/xlink" xmlns:svgjs="http://svgjs.dev/svgjs" version="1.1" width="32" height="32"><svg xmlns="http://www.w3.org/2000/svg" width="32" height="32" viewBox="0 0 512 512" fill="none">
<rect width="100%" height="100%" fill="#141414" />
<path fill-rule="evenodd" clip-rule="evenodd" d="M255.882 188.596C251.3 187.33 246.669 186.21 242.038 185.09C233.879 183.484 225.624 182.41 217.325 181.876C225.624 181.342 233.879 180.268 242.038 178.662C243.128 178.387 244.218 178.115 245.306 177.843C248.845 176.958 252.378 176.075 255.882 175.107C265.236 172.916 273.917 168.488 281.18 162.203C292.44 151.782 296.973 136.638 300.044 122.03C301.741 113.889 302.922 105.638 304.099 97.4044L304.101 97.3956L304.102 97.3867C304.276 96.17 304.45 94.9536 304.626 93.7381C305.557 84.7387 307.486 75.8705 310.377 67.2967C313.487 75.8244 315.518 84.7071 316.422 93.7381C316.598 94.9566 316.772 96.176 316.947 97.3957L316.948 97.4046L316.948 97.4067C318.126 105.639 319.306 113.89 321.004 122.03C324.075 136.638 328.608 151.782 339.868 162.203C347.13 168.488 355.811 172.916 365.166 175.107C368.67 176.075 372.202 176.958 375.741 177.843C376.83 178.115 377.919 178.387 379.009 178.662C387.168 180.268 395.423 181.342 403.722 181.876C395.423 182.41 387.168 183.484 379.009 185.09C374.378 186.21 369.748 187.33 365.166 188.596C355.815 190.769 347.133 195.181 339.868 201.451C328.608 211.872 324.075 227.016 321.004 241.625C319.306 249.765 318.126 258.016 316.948 266.25L316.737 267.727C316.632 268.457 316.527 269.187 316.422 269.916C315.488 278.847 313.458 287.63 310.377 296.065C307.51 287.585 305.581 278.816 304.626 269.916C304.45 268.699 304.276 267.482 304.101 266.264L304.099 266.25C302.922 258.017 301.741 249.765 300.044 241.625C296.973 227.065 292.44 211.872 281.18 201.451C273.915 195.181 265.233 190.769 255.882 188.596ZM229.852 260.908C233.203 263.819 237.221 265.86 241.551 266.849L247.741 268.456C251.508 269.188 255.318 269.676 259.147 269.917C255.314 270.15 251.503 270.654 247.741 271.426C245.596 271.913 243.452 272.449 241.356 273.033C237.023 273.985 232.999 276.011 229.657 278.925C224.918 284.015 221.87 290.444 220.932 297.332C220.204 300.887 219.677 304.51 219.157 308.088L219.157 308.088C219.05 308.822 218.944 309.555 218.836 310.285C218.424 314.395 217.491 318.437 216.058 322.312C214.73 318.412 213.831 314.379 213.377 310.285L213.313 309.819C212.749 305.682 212.173 301.462 211.281 297.332C210.359 290.449 207.328 284.019 202.604 278.925C199.25 276.028 195.232 274.004 190.906 273.033L184.52 271.426C180.758 270.657 176.947 270.153 173.114 269.917C176.943 269.673 180.753 269.185 184.52 268.456L190.906 266.849C195.227 265.839 199.241 263.801 202.604 260.908C207.328 255.814 210.359 249.384 211.281 242.501C212.207 238.217 212.792 233.883 213.376 229.55L213.377 229.549L213.377 229.549C213.821 225.421 214.72 221.354 216.058 217.423C217.502 221.329 218.436 225.404 218.836 229.549C218.895 229.951 218.953 230.353 219.011 230.755L219.1 231.369C219.639 235.095 220.177 238.816 220.932 242.501C221.925 249.412 225.042 255.844 229.852 260.908ZM159.367 131.33C163.693 132.301 167.712 134.325 171.066 137.222C175.79 142.316 178.82 148.746 179.742 155.629C180.668 159.914 181.253 164.247 181.838 168.58L181.838 168.582C182.292 172.676 183.191 176.709 184.519 180.61C185.952 176.734 186.885 172.693 187.297 168.582C187.375 168.05 187.452 167.518 187.529 166.986L187.529 166.986C188.079 163.185 188.629 159.388 189.442 155.629C190.363 148.746 193.394 142.316 198.118 137.222C201.467 134.317 205.487 132.292 209.817 131.33L216.203 129.675C219.969 128.942 223.779 128.455 227.608 128.214C223.779 127.973 219.969 127.485 216.203 126.753L209.817 125.146C205.491 124.147 201.475 122.108 198.118 119.205C193.394 114.111 190.363 107.681 189.442 100.798C188.641 97.0946 188.096 93.318 187.553 89.563C187.468 88.9736 187.383 88.3848 187.297 87.7969C186.888 83.6542 185.954 79.5799 184.519 75.6719C183.19 79.6051 182.291 83.6705 181.838 87.7969L181.806 88.0352C181.231 92.2914 180.651 96.5919 179.742 100.798C178.82 107.681 175.79 114.111 171.066 119.205C167.702 122.098 163.689 124.136 159.367 125.146L152.981 126.753C149.214 127.482 145.404 127.97 141.575 128.214C145.404 128.458 149.214 128.946 152.981 129.675L159.367 131.33ZM383.741 394.047C349.211 426.48 303.618 444.567 256.223 444.634C208.788 444.563 163.162 426.443 128.626 393.959C94.0899 361.475 73.2385 317.067 70.3134 269.77C67.4795 272.072 64.8981 274.667 62.6121 277.513L61.2471 279.217C60.0384 280.735 58.2756 281.71 56.3468 281.929C54.418 282.149 52.4812 281.593 50.9622 280.386C49.4432 279.178 48.4665 277.417 48.2471 275.491C48.0277 273.564 48.5836 271.629 49.7924 270.111L51.1571 268.407C61.8958 254.937 77.4839 246.198 94.5881 244.059L97.1226 243.816C99.0618 243.648 100.988 244.257 102.478 245.508C103.968 246.759 104.9 248.55 105.068 250.487C105.236 252.424 104.627 254.349 103.374 255.837C102.122 257.326 100.329 258.256 98.39 258.424H96.4404C92.3716 258.964 88.3799 259.977 84.5469 261.443C85.6148 306.196 104.16 348.756 136.221 380.03C168.282 411.305 211.315 428.812 256.125 428.812C300.936 428.812 343.969 411.305 376.03 380.03C408.091 348.756 426.636 306.196 427.704 261.443C423.729 259.856 419.569 258.776 415.324 258.23H413.374C412.413 258.15 411.478 257.882 410.622 257.441C409.765 257 409.004 256.395 408.382 255.66C407.76 254.925 407.288 254.075 406.995 253.158C406.701 252.241 406.591 251.276 406.671 250.317C406.751 249.357 407.02 248.423 407.461 247.568C407.903 246.712 408.508 245.952 409.244 245.33C409.979 244.708 410.83 244.237 411.748 243.944C412.666 243.651 413.632 243.541 414.592 243.621L417.127 243.865C425.238 244.873 433.09 247.383 440.28 251.266C448.168 255.452 455.105 261.222 460.655 268.212L462.02 269.916C462.62 270.667 463.065 271.529 463.331 272.452C463.597 273.375 463.677 274.342 463.569 275.296C463.46 276.25 463.164 277.174 462.697 278.014C462.231 278.854 461.603 279.594 460.85 280.191C459.565 281.219 457.963 281.769 456.317 281.749C455.222 281.757 454.139 281.516 453.151 281.043C452.163 280.571 451.295 279.88 450.614 279.022L449.249 277.318C447.117 274.661 444.734 272.215 442.133 270.014C439.148 317.267 418.271 361.614 383.741 394.047Z" fill="white"/>
</svg></svg>
